<svg xmlns="http://www.w3.org/2000/svg" 
viewBox="0 0 156.76 125.59" width="72" height="52"><defs>
<style>
.cls-1{fill:#ff8000;}
.cls-2{font-size:22.5px;fill:#fff;font-family:LEMONMILK-Bold, LEMON MILK;font-weight:700;}
</style></defs><g id="Слой_2" data-name="Слой 2">
<g id="Слой_1-2" data-name="Слой 1">
<path class="cls-1" d="M69.46,83.82C57,82.93,49.05,77.81,42.83,72a40.16,40.16,0,0,1-5.16.3C16.32,72.27,0,56.72,0,36.26,0,15.64,16.36,0,37.71,0S75.43,15.64,75.43,36.26A35.1,35.1,0,0,1,60,65.67a77,77,0,0,0,15.72,1.91Zm-31.75-29C48.62,54.84,57,46.7,57,36.14s-8.35-18.8-19.26-18.8-19.26,8.19-19.26,18.8S26.8,54.84,37.71,54.84Z"/>
<path class="cls-1" 
d="M135.41,70.53,117.05,40.7V70.53H98.81l-.09-68.7H124.8c14.83,0,25.44,10,25.44,22.33A20.69,20.69,0,0,1,138.35,43l18.41,27.58ZM117,32l7.46,0c3.88,0,7.41-2.69,7.41-6.91s-3.58-6.9-7.41-6.9H117Z"/>
<text class="cls-2" 
transform="translate(0 118.8)">Abonement</text>
</g></g></svg>